700 0 1 0           
33 Autodesk Inventor 19.1.20300.0000 18 ASM 220.0.1.300 NT 24 Fri Dec 05 17:12:49 2014 
25.399999999999999 9.9999999999999995e-007 1e-010 
body $1 -1 $-1 $2 $-1 $-1 #
DXID-attrib $-1 -1 $-1 $-1 $0 @10 ASM ENTITY @18 G:\slider v1.ipt\2 #
lump $-1 -1 $-1 $-1 $3 $0 #
shell $-1 -1 $-1 $-1 $-1 $4 $-1 $2 #
face $-1 -1 $-1 $5 $6 $3 $-1 $7 reversed single #
face $-1 -1 $-1 $8 $9 $3 $-1 $10 reversed single #
loop $-1 -1 $-1 $11 $12 $4 #
cone-surface $-1 -1 $-1 -0.74999999999999989 -1.6751623308178456 -0.28749999999999992 0 1 0 0.098425196850393692 0 0 1 I I -0 1 0.098425196850393692 reversed I I I I #
face $-1 -1 $-1 $13 $14 $3 $-1 $15 forward single #
loop $-1 -1 $-1 $16 $17 $5 #
cone-surface $-1 -1 $-1 -0.24999999999999989 -1.6751623308178456 -0.28749999999999992 0 1 0 0.098425196850393692 0 0 1 I I -0 1 0.098425196850393692 reversed I I I I #
loop $-1 -1 $-1 $-1 $18 $4 #
coedge $-1 -1 $-1 $12 $12 $19 $20 reversed $6 $-1 #
face $-1 -1 $-1 $21 $22 $3 $-1 $23 forward single #
loop $-1 -1 $-1 $-1 $24 $8 #
plane-surface $-1 -1 $-1 -1.0000000000000002 0.24999999999999997 -1.1695 0 0 1 0.39370078740157477 0 0 forward_v I I I I #
loop $-1 -1 $-1 $-1 $25 $5 #
coedge $-1 -1 $-1 $17 $17 $26 $27 reversed $9 $-1 #
coedge $-1 -1 $-1 $18 $18 $28 $29 reversed $11 $-1 #
coedge $-1 -1 $-1 $19 $19 $12 $20 forward $30 $-1 #
edge $-1 -1 $-1 $31 -3.1415926535897931 $31 3.1415926535897931 $19 $32 forward @7 unknown #
face $-1 -1 $-1 $33 $34 $3 $-1 $35 forward single #
loop $-1 -1 $-1 $-1 $36 $13 #
plane-surface $-1 -1 $-1 0 0.24999999999999997 -1.4054999999999997 0 0 -1 -0.39370078740157477 0 0 forward_v I I I I #
coedge $-1 -1 $-1 $37 $38 $39 $40 reversed $14 $-1 #
coedge $-1 -1 $-1 $25 $25 $41 $42 reversed $16 $-1 #
coedge $-1 -1 $-1 $26 $26 $17 $27 forward $43 $-1 #
edge $-1 -1 $-1 $44 -3.1415926535897931 $44 3.1415926535897931 $26 $45 forward @7 unknown #
coedge $-1 -1 $-1 $28 $28 $18 $29 forward $46 $-1 #
edge $-1 -1 $-1 $47 0 $47 6.2831853071795862 $28 $48 forward @7 unknown #
loop $-1 -1 $-1 $43 $19 $49 #
vertex $-1 -1 $-1 $20 $50 #
ellipse-curve $-1 -1 $-1 -0.74999999999999989 0 -0.28749999999999992 0 1 0 0.098425196850393692 0 0 1 I I #
face $-1 -1 $-1 $51 $52 $3 $-1 $53 forward single #
loop $-1 -1 $-1 $-1 $54 $21 #
plane-surface $-1 -1 $-1 -0.5 0.47500000000000003 -1.2874999999999994 0 1 0 0 0 0.39370078740157477 forward_v I I I I #
coedge $-1 -1 $-1 $55 $56 $57 $58 reversed $22 $-1 #
coedge $-1 -1 $-1 $59 $24 $60 $61 forward $14 $-1 #
coedge $-1 -1 $-1 $24 $59 $62 $63 reversed $14 $-1 #
coedge $-1 -1 $-1 $64 $65 $24 $40 forward $66 $-1 #
edge $-1 -1 $-1 $67 -1.9050000000000007 $68 0.63500000000000023 $39 $69 forward @7 unknown #
coedge $-1 -1 $-1 $41 $41 $25 $42 forward $70 $-1 #
edge $-1 -1 $-1 $71 0 $71 6.2831853071795862 $41 $72 forward @7 unknown #
loop $-1 -1 $-1 $73 $26 $49 #
vertex $-1 -1 $-1 $27 $74 #
ellipse-curve $-1 -1 $-1 -0.24999999999999989 0 -0.28749999999999992 0 1 0 0.098425196850393692 0 0 1 I I #
loop $-1 -1 $-1 $70 $28 $75 #
vertex $-1 -1 $-1 $29 $76 #
ellipse-curve $-1 -1 $-1 -0.74999999999999989 0.24999999999999989 -0.28749999999999992 -0 -1 -0 0.098425196850393692 0 0 1 I I #
face $-1 -1 $-1 $75 $30 $3 $-1 $77 forward single #
point $-1 -1 $-1 -0.84842519685039353 0 -0.28749999999999992 #
face $-1 -1 $-1 $78 $79 $3 $-1 $80 forward single #
loop $-1 -1 $-1 $-1 $57 $33 #
plane-surface $-1 -1 $-1 -0.50000000000000022 0.24999999999999997 -0.78750000000000009 0 1 0 0 0 0.39370078740157477 forward_v I I I I #
coedge $-1 -1 $-1 $81 $82 $83 $84 forward $34 $-1 #
coedge $-1 -1 $-1 $83 $36 $85 $86 forward $22 $-1 #
coedge $-1 -1 $-1 $36 $83 $87 $88 reversed $22 $-1 #
coedge $-1 -1 $-1 $89 $90 $36 $58 forward $52 $-1 #
edge $-1 -1 $-1 $91 -1.9050000000000007 $92 0.63500000000000034 $57 $93 forward @7 unknown #
coedge $-1 -1 $-1 $38 $37 $94 $95 reversed $14 $-1 #
coedge $-1 -1 $-1 $96 $97 $37 $61 reversed $98 $-1 #
edge $-1 -1 $-1 $67 0 $99 0.57150000000000012 $37 $100 forward @7 unknown #
coedge $-1 -1 $-1 $101 $102 $38 $63 forward $79 $-1 #
edge $-1 -1 $-1 $68 0 $103 0.57150000000000012 $62 $104 forward @7 unknown #
coedge $-1 -1 $-1 $105 $39 $102 $106 forward $66 $-1 #
coedge $-1 -1 $-1 $39 $105 $96 $107 forward $66 $-1 #
loop $-1 -1 $-1 $-1 $39 $75 #
vertex $-1 -1 $-1 $107 $108 #
vertex $-1 -1 $-1 $106 $109 #
straight-curve $-1 -1 $-1 -0.75000000000000022 0.24999999999999997 -1.1695 -0.39370078740157477 0 0 I I #
loop $-1 -1 $-1 $66 $41 $75 #
vertex $-1 -1 $-1 $42 $110 #
ellipse-curve $-1 -1 $-1 -0.24999999999999989 0.24999999999999989 -0.28749999999999992 -0 -1 -0 0.098425196850393692 0 0 1 I I #
loop $-1 -1 $-1 $-1 $111 $49 #
point $-1 -1 $-1 -0.34842519685039358 0 -0.28749999999999992 #
face $-1 -1 $-1 $-1 $46 $3 $-1 $53 forward single #
point $-1 -1 $-1 -0.65157480314960614 0.24999999999999997 -0.28749999999999992 #
plane-surface $-1 -1 $-1 -0.50000000000000022 0 -0.78750000000000009 0 -1 0 0 0 -0.39370078740157477 forward_v I I I I #
face $-1 -1 $-1 $112 $113 $3 $-1 $114 forward single #
loop $-1 -1 $-1 $-1 $115 $51 #
plane-surface $-1 -1 $-1 -1.0000000000000004 0 -1.5749999999999997 -1 0 2.2201685281842901e-016 8.7408209771035034e-017 0 0.39370078740157477 forward_v I I I I #
coedge $-1 -1 $-1 $94 $54 $101 $116 forward $34 $-1 #
coedge $-1 -1 $-1 $54 $94 $97 $117 forward $34 $-1 #
coedge $-1 -1 $-1 $56 $55 $54 $84 reversed $22 $-1 #
edge $-1 -1 $-1 $118 0 $119 2.5400000000000009 $83 $120 forward @7 unknown #
coedge $-1 -1 $-1 $121 $101 $55 $86 reversed $79 $-1 #
edge $-1 -1 $-1 $91 0 $119 0.57150000000000012 $55 $122 forward @7 unknown #
coedge $-1 -1 $-1 $97 $123 $56 $88 forward $98 $-1 #
edge $-1 -1 $-1 $92 0 $118 0.57150000000000012 $56 $124 forward @7 unknown #
coedge $-1 -1 $-1 $125 $57 $123 $126 forward $52 $-1 #
coedge $-1 -1 $-1 $57 $125 $121 $127 forward $52 $-1 #
vertex $-1 -1 $-1 $127 $128 #
vertex $-1 -1 $-1 $126 $129 #
straight-curve $-1 -1 $-1 -0.25000000000000011 0.24999999999999997 -1.4054999999999997 0.39370078740157477 0 0 I I #
coedge $-1 -1 $-1 $82 $81 $59 $95 forward $34 $-1 #
edge $-1 -1 $-1 $103 0 $99 2.5400000000000009 $59 $130 forward @7 unknown #
coedge $-1 -1 $-1 $131 $60 $65 $107 reversed $98 $-1 #
coedge $-1 -1 $-1 $60 $87 $82 $117 reversed $98 $-1 #
loop $-1 -1 $-1 $-1 $132 $112 #
vertex $-1 -1 $-1 $61 $133 #
straight-curve $-1 -1 $-1 0 0.24999999999999997 -1.1695 0 0.39370078740157477 0 I I #
coedge $-1 -1 $-1 $85 $62 $81 $116 reversed $79 $-1 #
coedge $-1 -1 $-1 $62 $134 $64 $106 reversed $79 $-1 #
vertex $-1 -1 $-1 $63 $135 #
straight-curve $-1 -1 $-1 -1.0000000000000002 0.24999999999999997 -1.1695 0 0.39370078740157477 0 I I #
coedge $-1 -1 $-1 $65 $64 $136 $137 forward $66 $-1 #
edge $-1 -1 $-1 $68 -2.9705300000000001 $138 -0 $102 $139 forward @7 unknown #
edge $-1 -1 $-1 $140 -4.0004999999999997 $67 -1.0299699999999996 $96 $141 forward @7 unknown #
point $-1 -1 $-1 0 0.24999999999999997 -1.1695 #
point $-1 -1 $-1 -1.0000000000000002 0.24999999999999997 -1.1695 #
point $-1 -1 $-1 -0.1515748031496062 0.24999999999999997 -0.28749999999999992 #
coedge $-1 -1 $-1 $142 $143 $144 $145 forward $73 $-1 #
face $-1 -1 $-1 $146 $98 $3 $-1 $147 forward single #
loop $-1 -1 $-1 $-1 $148 $78 #
plane-surface $-1 -1 $-1 0 0 -1.5749999999999997 0 0 -1 -0.39370078740157477 -0 -0 forward_v I I I I #
coedge $-1 -1 $-1 $134 $149 $142 $150 reversed $79 $-1 #
edge $-1 -1 $-1 $119 0 $103 0.59943999999999953 $101 $151 forward @7 unknown #
edge $-1 -1 $-1 $99 0 $118 0.59943999999999953 $97 $152 forward @7 unknown #
vertex $-1 -1 $-1 $88 $153 #
vertex $-1 -1 $-1 $86 $154 #
straight-curve $-1 -1 $-1 0 0.47500000000000003 -1.4054999999999997 -0.39370078740157477 0 0 I I #
coedge $-1 -1 $-1 $149 $85 $90 $127 reversed $79 $-1 #
straight-curve $-1 -1 $-1 -1.0000000000000002 0.24999999999999997 -1.4054999999999997 0 0.39370078740157477 0 I I #
coedge $-1 -1 $-1 $87 $155 $89 $126 reversed $98 $-1 #
straight-curve $-1 -1 $-1 0 0.24999999999999997 -1.4054999999999997 0 0.39370078740157477 0 I I #
coedge $-1 -1 $-1 $90 $89 $156 $157 forward $52 $-1 #
edge $-1 -1 $-1 $92 -0.43053000000000008 $158 -0 $123 $141 forward @7 unknown #
edge $-1 -1 $-1 $159 -4.0004999999999997 $91 -3.5699699999999996 $121 $139 forward @7 unknown #
point $-1 -1 $-1 -1.0000000000000002 0.24999999999999997 -1.4054999999999997 #
point $-1 -1 $-1 0 0.24999999999999997 -1.4054999999999997 #
straight-curve $-1 -1 $-1 -1.0000000000000002 0.47500000000000003 -1.1695 0.39370078740157477 0 0 I I #
coedge $-1 -1 $-1 $132 $96 $160 $161 reversed $98 $-1 #
coedge $-1 -1 $-1 $155 $131 $143 $162 reversed $98 $-1 #
point $-1 -1 $-1 0 0.47500000000000003 -1.1695 #
coedge $-1 -1 $-1 $102 $115 $163 $164 forward $79 $-1 #
point $-1 -1 $-1 -1.0000000000000002 0.47500000000000003 -1.1695 #
coedge $-1 -1 $-1 $163 $160 $105 $137 reversed $165 $-1 #
edge $-1 -1 $-1 $138 -2.5400000000000005 $140 -0 $136 $166 forward @7 unknown #
vertex $-1 -1 $-1 $164 $167 #
straight-curve $-1 -1 $-1 -1 0.24999999999999997 0 8.7408209771035034e-017 0 0.39370078740157477 I I #
vertex $-1 -1 $-1 $161 $168 #
straight-curve $-1 -1 $-1 0 0.24999999999999997 -1.5749999999999997 -0 -0 -0.39370078740157477 I I #
coedge $-1 -1 $-1 $169 $111 $115 $150 forward $73 $-1 #
coedge $-1 -1 $-1 $111 $169 $132 $162 forward $73 $-1 #
coedge $-1 -1 $-1 $160 $163 $111 $145 reversed $165 $-1 #
edge $-1 -1 $-1 $170 0 $171 2.5400000000000005 $111 $172 forward @7 unknown #
face $-1 -1 $-1 $49 $165 $3 $-1 $173 forward single #
plane-surface $-1 -1 $-1 0 0 0 1 0 0 -0 -0 -0.39370078740157477 forward_v I I I I #
coedge $-1 -1 $-1 $174 $175 $169 $176 reversed $113 $-1 #
coedge $-1 -1 $-1 $115 $121 $174 $177 reversed $79 $-1 #
edge $-1 -1 $-1 $171 0 $178 4.0004999999999997 $142 $179 forward @7 unknown #
straight-curve $-1 -1 $-1 -1.0000000000000002 0.47500000000000003 -1.4054999999999997 0 0 0.39370078740157477 I I #
straight-curve $-1 -1 $-1 0 0.47500000000000003 -1.1695 0 0 -0.39370078740157477 I I #
point $-1 -1 $-1 0 0.47500000000000003 -1.4054999999999997 #
point $-1 -1 $-1 -1.0000000000000002 0.47500000000000003 -1.4054999999999997 #
coedge $-1 -1 $-1 $123 $132 $175 $180 forward $98 $-1 #
coedge $-1 -1 $-1 $175 $174 $125 $157 reversed $113 $-1 #
edge $-1 -1 $-1 $158 -2.5400000000000014 $159 -0 $156 $181 forward @7 unknown #
vertex $-1 -1 $-1 $180 $182 #
vertex $-1 -1 $-1 $177 $183 #
coedge $-1 -1 $-1 $136 $144 $131 $161 forward $165 $-1 #
edge $-1 -1 $-1 $170 0 $140 0.63500000000000001 $160 $184 forward @7 unknown #
edge $-1 -1 $-1 $185 0 $170 4.0004999999999997 $143 $186 forward @7 unknown #
coedge $-1 -1 $-1 $144 $136 $134 $164 reversed $165 $-1 #
edge $-1 -1 $-1 $171 0 $138 0.63500000000000001 $163 $187 forward @7 unknown #
loop $-1 -1 $-1 $-1 $144 $146 #
straight-curve $-1 -1 $-1 0 0.24999999999999997 0 0.39370078740157477 0 0 I I #
point $-1 -1 $-1 -1 0.24999999999999997 0 #
point $-1 -1 $-1 0 0.24999999999999997 0 #
coedge $-1 -1 $-1 $143 $142 $148 $176 forward $73 $-1 #
vertex $-1 -1 $-1 $145 $188 #
vertex $-1 -1 $-1 $145 $189 #
straight-curve $-1 -1 $-1 0 0 0 -0.39370078740157477 0 0 F 0 F 2.5400000000000005 #
plane-surface $-1 -1 $-1 -1 0 0 0 0 1 0.39370078740157477 0 0 forward_v I I I I #
coedge $-1 -1 $-1 $156 $148 $149 $177 forward $113 $-1 #
coedge $-1 -1 $-1 $148 $156 $155 $180 reversed $113 $-1 #
edge $-1 -1 $-1 $178 0 $185 2.5400000000000014 $169 $190 forward @7 unknown #
edge $-1 -1 $-1 $178 0 $159 0.63500000000000001 $174 $191 forward @7 unknown #
vertex $-1 -1 $-1 $150 $192 #
straight-curve $-1 -1 $-1 -1 0 0 -8.7408209771035034e-017 0 -0.39370078740157477 F 0 F 4.0004999999999997 #
edge $-1 -1 $-1 $185 0 $158 0.63500000000000001 $155 $193 forward @7 unknown #
straight-curve $-1 -1 $-1 -1.0000000000000004 0.24999999999999997 -1.5749999999999997 -0.39370078740157477 -0 -0 I I #
point $-1 -1 $-1 0 0.24999999999999997 -1.5749999999999997 #
point $-1 -1 $-1 -1.0000000000000004 0.24999999999999997 -1.5749999999999997 #
straight-curve $-1 -1 $-1 0 0 0 0 0.39370078740157477 0 I I #
vertex $-1 -1 $-1 $176 $194 #
straight-curve $-1 -1 $-1 0 0 -1.5749999999999997 0 0 0.39370078740157477 F 0 F 4.0004999999999997 #
straight-curve $-1 -1 $-1 -1 0 0 0 0.39370078740157477 0 I I #
point $-1 -1 $-1 0 0 0 #
point $-1 -1 $-1 -1 0 0 #
straight-curve $-1 -1 $-1 -1.0000000000000004 0 -1.5749999999999997 0.39370078740157477 0 0 F 0 F 2.5400000000000014 #
straight-curve $-1 -1 $-1 -1.0000000000000004 0 -1.5749999999999997 0 0.39370078740157477 0 I I #
point $-1 -1 $-1 -1.0000000000000004 0 -1.5749999999999997 #
straight-curve $-1 -1 $-1 0 0 -1.5749999999999997 0 0.39370078740157477 0 I I #
point $-1 -1 $-1 0 0 -1.5749999999999997 #
End-of-ACIS-data 